ply
format ascii 1.0
element vertex 32
property int32 x
property int32 y
property int32 z
element face 29
property list uint8 int32 vertex_indices
end_header

-10 40 0
10  40 0
10  35 0
6  35 0
-10 35 0
-5 35 0
-10  13 0
-5 13 0
10   13 0
-10 8 0
10  8 0
6 32 0
10 32 0
5 13 0
5 16 0
10 16 0

-10 40 -6
10  40 -6
10  35 -6
6  35 -6
-10 35 -6
-5 35 -6
-10  13 -6
-5 13 -6
10   13 -6
-10 8 -6
10  8 -6
6 32 -6
10 32 -6
5 13 -6
5 16 -6
10 16 -6

4 4 0 1 2
4 3 2 12 11
4 4 5 7 6
4 6 8 10 9
4 13 8 15 14

4 20 16 17 18
4 19 18 28 27
4 20 21 23 22
4 22 24 26 25
4 29 24 31 30

4 0 16 17 1
4 4 20 16 0
4 1 17 18 2
4 4 20 18 2
4 2 18 28 12
4 11 27 28 12
4 3 19 27 11

4 4 20 22 6
4 5 21 23 7
4 4 20 21 5
4 6 22 23 7

4 6 22 24 8
4 6 22 25 9
4 9 25 26 10
4 8 24 26 10
4 13 29 30 14
4 13 29 24 8
4 14 30 31 15
4 8 24 31 15



