ply
format ascii 1.0
element vertex 40
property int32 x
property int32 y
property int32 z
element face 35
property list uint8 int32 vertex_indices
end_header

20 40 0
40  40 0
40  35 0
36  35 0
20 35 0
25 35 0
20  13 0
25 13 0
40   13 0
20 8 0
40  8 0
36 32 0
40 32 0
36 13 0
36 16 0
40 16 0

20 40 -6
40  40 -6
40  35 -6
36  35 -6
20 35 -6
25 35 -6
20  13 -6
25 13 -6
40   13 -6
20 8 -6
40  8 -6
36 32 -6
40 32 -6
36 13 -6
36 16 -6
40 16 -6

33 16 0
33 19 0
43 19 0
43 16 0

33 16 -6
33 19 -6
43 19 -6
43 16 -6

4 4 0 1 2
4 3 2 12 11
4 4 5 7 6
4 6 8 10 9
4 13 8 15 14

4 20 16 17 18
4 19 18 28 27
4 20 21 23 22
4 22 24 26 25
4 29 24 31 30

4 0 16 17 1
4 4 20 16 0
4 1 17 18 2
4 4 20 18 2
4 2 18 28 12
4 11 27 28 12
4 3 19 27 11

4 4 20 22 6
4 5 21 23 7
4 4 20 21 5
4 6 22 23 7

4 6 22 24 8
4 6 22 25 9
4 9 25 26 10
4 8 24 26 10
4 13 29 30 14
4 13 29 24 8
4 14 30 31 15
4 8 24 31 15

4 32 33 34 35
4 36 37 38 39

4 32 36 37 33
4 34 38 39 35
4 32 36 39 35
4 33 37 38 34




