ply
format ascii 1.0
element vertex 24
property int32 x
property int32 y
property int32 z
element face 18
property list uint8 int32 vertex_indices
end_header

-33   35  0
-33   40  0
-21  40  0
-21  35  0
-30   35  0
-24   35  0
-30  13 0
-24  13 0 
-33  13 0
-21 13 0
-33  8 0
-21 8 0

-33   35  -6
-33   40  -6
-21  40  -6
-21  35  -6
-30  35  -6
-24   35  -6
-30  13 -6
-24  13 -6 
-33  13 -6
-21 13 -6
-33  8 -6
-21 8 -6


4 0 1 2 3
4 4 5 7 6
4 8 9 11 10

4 12 13 14 15
4 16 17 19 18
4 20 21 23 22

4 1 13 14 2
4 0 12 15 3
4 0 12 13 1
4 3 15 14 2

4 4 16 17 5
4 4 16 18 6
4 5 17 19 7
4 6 18 19 7

4 8 20 21 9
4 8 20 22 10
4 9 21 23 11
4 10 22 23 11

